{"title":"True.Detective.S02.720p.BluRay.X264-iNVANDRAREN [Season 2 Two]","uid":15660109,"size":24421680002,"categoryP":"video","categoryS":"hd___tv_shows","magnet":"?xt=urn:btih:a6230f85ae9f7e1dfd672404ac91d426014be477&amp;dn=True.Detective.S02.720p.BluRay.X264-iNVANDRAREN+%5BSeason+2+Two%5D&amp;tr=udp%3A%2F%2Ftracker.leechers-paradise.org%3A6969&amp;tr=udp%3A%2F%2Fzer0day.ch%3A1337&amp;tr=udp%3A%2F%2Fopen.demonii.com%3A1337&amp;tr=udp%3A%2F%2Ftracker.coppersurfer.tk%3A6969&amp;tr=udp%3A%2F%2Fexodus.desync.com%3A6969","seeders":0,"leechers":3,"uploader":"GoodFilms","files":10,"time":1472175224,"description":"True.Detective.S02.720p.BluRay.X264-iNVANDRAREN [Season 2 Two]\r\n \nhttp://www.imdb.com/title/tt2356777/\r\n\r\nFirst season:  https://thepiratebay.org/torrent/10211667/True.Detective.S01.720p.BluRay.x264-DEMAND\r\n\r\nVideo\r\nID                                       : 1\r\nFormat                                   : AVC\r\nFormat/Info                              : Advanced Video Codec\r\nFormat profile                           :   \r\nFormat settings, CABAC                   : Yes\r\nFormat settings, ReFrames                : 5 frames\r\nCodec ID                                 : V_MPEG4/ISO/AVC\r\nDuration                                 : 1h 26mn\r\nBit rate                                 : 5 689 Kbps\r\nWidth                                    : 1 280 pixels\r\nHeight                                   : 720 pixels\r\nDisplay aspect ratio                     : 16:9\r\nFrame rate mode                          : Constant\r\nFrame rate                               : 23.976 fps\r\nColor space                              : YUV\r\nChroma subsampling                       : 4:2:0\r\nBit depth                                : 8 bits\r\nScan type                                : Progressive\r\nBits/(Pixel*Frame)                       : 0.257\r\nStream size                              : 3.46 GiB (79%)\r\nWriting library                          : x264 core 148 r2638kMod 7599210\r\nLanguage                                 : English\r\nDefault                                  : Yes\r\nForced                                   : No\r\n\r\nAudio\r\nID                                       : 2\r\nFormat                                   : DTS\r\nFormat/Info                              : Digital Theater Systems\r\nMode                                     : 16\r\nFormat settings, Endianness              : Big\r\nCodec ID                                 : A_DTS\r\nDuration                                 : 1h 26mn\r\nBit rate mode                            : Constant\r\nBit rate                                 : 1 509 Kbps\r\nChannel(s)                               : 6 channels\r\nChannel positions                        : Front: L C R, Side: L R, LFE\r\nSampling rate                            : 48.0 KHz\r\nFrame rate                               : 93.750 fps (512 spf)\r\nBit depth                                : 24 bits\r\nCompression mode                         : Lossy\r\nStream size                              : 938 MiB (21%)\r\nLanguage                                 : English\r\nDefault                                  : Yes\r\nForced                                   : No\r\n\r\nSubs:  https://subscene.com/subtitles/true-detective-second-season/english/1251499","torrent":{"xt":"urn:btih:a6230f85ae9f7e1dfd672404ac91d426014be477","amp;dn":"True.Detective.S02.720p.BluRay.X264-iNVANDRAREN+%5BSeason+2+Two%5D","amp;tr":["udp%3A%2F%2Ftracker.leechers-paradise.org%3A6969","udp%3A%2F%2Fzer0day.ch%3A1337","udp%3A%2F%2Fopen.demonii.com%3A1337","udp%3A%2F%2Ftracker.coppersurfer.tk%3A6969","udp%3A%2F%2Fexodus.desync.com%3A6969"],"infoHash":"a6230f85ae9f7e1dfd672404ac91d426014be477","infoHashBuffer":{"type":"Buffer","data":[166,35,15,133,174,159,126,29,253,103,36,4,172,145,212,38,1,75,228,119]},"announce":[],"urlList":[]}}